<svg xmlns="http://www.w3.org/2000/svg" viewBox="0 0 906.42 118.54"><defs><style>.cls-1{fill:#19212b;}</style></defs><title>AppDynamics_Logo_Master_RGB_DeepSpace</title><g id="Layer_2" data-name="Layer 2"><g id="Layer_1-2" data-name="Layer 1"><path class="cls-1" d="M31.4,69.32,15.07,32.67a41.94,41.94,0,0,0,26.87,74.14,43.18,43.18,0,0,0,6-.42L31.62,69.83C31.54,69.66,31.47,69.49,31.4,69.32ZM41.94,0A64.6,64.6,0,0,0,26.42,1.87L36,23.35a43.44,43.44,0,0,1,6-.42A41.94,41.94,0,0,1,68.81,97.07l9.55,21.47A64.86,64.86,0,0,0,41.94,0Zm65.18,109L106,111.79,104.89,109h-.78v4.24h.75v-2.68l.92,2.29h.45l.92-2.29v2.68h.75V109Zm-6.77.64h1.12v3.6h.75v-3.6h1.11V109h-3Z"/><path class="cls-1" d="M202.78,78.05H171.67l-5.1,11.22H154.42l26.69-59.49h12.23L220,89.27H207.79ZM187.23,42.27l-11,25.33h22.09Z"/><path class="cls-1" d="M248.92,71.76V82.85a6.41,6.41,0,0,1-6.42,6.42h-4.79V29.78c9.26,0,18.78-.09,28-.09,29.24,0,29.33,41.82,0,42.07Zm0-10.28h16.83c14.37,0,14.28-21.08,0-21.08H248.92Z"/><path class="cls-1" d="M318.44,71.76V82.85A6.41,6.41,0,0,1,312,89.27h-4.8V29.78c9.27,0,18.79-.09,28-.09,29.24,0,29.32,41.82,0,42.07Zm0-10.28h16.83c14.36,0,14.28-21.08,0-21.08H318.44Z"/><path class="cls-1" d="M429.86,59c.26,15.05-8.92,30.26-29.75,30.26H376.74V29.78h23.37C420.51,29.78,429.61,44.31,429.86,59Zm-42,19.47h12.23c13.52,0,18.87-9.86,18.62-19.55-.26-9.26-5.7-18.53-18.62-18.53H387.88Z"/><path class="cls-1" d="M468.87,54.34l15.81-24.56h13.51v.51L474.48,64.71V82.85a6.42,6.42,0,0,1-6.42,6.42h-4.8V64.71L440.39,30.29v-.51h13.35Z"/><path class="cls-1" d="M555.5,69.81V36.2a6.42,6.42,0,0,1,6.42-6.42h4.8V89.27h-9.1L526,49.67V82.85a6.42,6.42,0,0,1-6.42,6.42h-4.8V29.78h9.09Z"/><path class="cls-1" d="M632.75,78.05H601.64l-5.09,11.22H584.39l26.69-59.49h12.24L650,89.27H637.77ZM617.2,42.27,606.15,67.6h22.1Z"/><path class="cls-1" d="M719.44,46.18,700.06,72h-2.21l-19-25.93V82.94a6.43,6.43,0,0,1-6.43,6.42h-4.79V29.86h12.91l18.62,25.59,18.61-25.59h12.84V82.94a6.43,6.43,0,0,1-6.43,6.42h-4.79Z"/><path class="cls-1" d="M755.82,89.27V36.2a6.41,6.41,0,0,1,6.42-6.42H767V82.85a6.41,6.41,0,0,1-6.42,6.42Z"/><path class="cls-1" d="M841.47,81.79c-6.11,6-14,8.84-22.6,8.84-22.1,0-31.45-15.21-31.54-30.68s10-31.36,31.54-31.36a30.71,30.71,0,0,1,21.84,9.09l-7.48,7.23a20.42,20.42,0,0,0-14.36-5.61C804.5,39.3,798.3,50,798.39,60s5.77,20.14,20.48,20.14a21.91,21.91,0,0,0,15-6Z"/><path class="cls-1" d="M895.87,44.27c-2-3.42-7.59-6.7-14-6.75-8.33-.08-12.36,3.37-12.4,7.79,0,5.19,6.06,6.69,13.2,7.6,12.39,1.64,23.92,5,23.8,19.16-.12,13.26-11.9,18.85-25.15,18.74-12.16-.11-21.47-3.93-25.8-14.85l9.39-4.76c2.58,6.57,9.44,9.72,16.66,9.79,7.06.06,13.71-2.56,13.76-9,.05-5.61-5.79-8-13.69-8.87-12.14-1.55-23.33-4.88-23.21-18.22.1-12.24,12.22-17.15,23.18-17.14,9.27.08,18.85,2.8,23.27,12Z"/></g></g></svg>